<svg width="282" height="232" viewBox="0 0 282 232" fill="none" xmlns="http://www.w3.org/2000/svg">
<style>
#body{
    fill:#212328;
    fill-opacity:0.32;
}
#wing{
    fill:#212328;
    fill-opacity:0.32;
}

@media (prefers-color-scheme: dark) {
    #body{
        fill:#FFFFFF;
        fill-opacity:0.46;
    }
    #wing{
        fill:#FFFFFF;
        fill-opacity:0.46;
    }
}
</style>


	<path id='body' d="M74.4135 232C33.316 232 1.79643e-06 198.613 0 157.429C-1.79643e-06 116.244 33.316 82.8572 74.4135 82.8572H140.559C181.656 82.8572 214.972 116.244 214.972 157.429C214.972 198.613 181.656 232 140.559 232H74.4135Z" fill="#212328" fill-opacity="0.32"/>
	<path d="M173.631 149.143C132.534 149.143 99.218 115.756 99.218 74.5714C99.218 33.3868 132.534 1.80024e-06 173.631 0C214.729 -1.80024e-06 248.045 33.3868 248.045 74.5714C248.045 115.756 214.729 149.143 173.631 149.143Z" fill="#4CAE4F"/>
	<path d="M239.777 82.8571C244.343 82.8571 248.045 79.1475 248.045 74.5714C248.045 69.9954 244.343 66.2857 239.777 66.2857C235.21 66.2857 231.509 69.9954 231.509 74.5714C231.509 79.1475 235.21 82.8571 239.777 82.8571Z" fill="#1B255A"/>
	<path d="M173.631 82.8571C178.198 82.8571 181.9 79.1475 181.9 74.5714C181.9 69.9954 178.198 66.2857 173.631 66.2857C169.065 66.2857 165.363 69.9954 165.363 74.5714C165.363 79.1475 169.065 82.8571 173.631 82.8571Z" fill="#1B255A"/>
	<path d="M206.704 132.571C193.005 132.571 181.9 121.443 181.9 107.714C181.9 93.9861 193.005 82.8571 206.704 82.8571L256.313 82.8571C270.012 82.8571 281.118 93.9861 281.118 107.714C281.118 121.443 270.012 132.571 256.313 132.571H206.704Z" fill="#F4A462"/>
	<path id='wing' d="M170.273 160.03C169.568 171 165.033 181.768 156.667 190.151C138.395 208.462 108.77 208.462 90.4985 190.152L57.425 157.008L90.497 123.866C108.769 105.555 138.394 105.555 156.665 123.866C166.566 133.787 171.102 147.048 170.273 160.03Z" fill="#212328" fill-opacity="0.32"/>
</svg>
